<svg width="20" height="22" viewBox="0 0 20 22" fill="none" xmlns="http://www.w3.org/2000/svg">
<path d="M20 8.59913V20.087C19.9985 20.5939 19.7974 21.0796 19.4405 21.438C19.0836 21.7965 18.6 21.9985 18.0952 22H12.381V14.3478H7.61905V22H1.90476C1.40004 21.9985 0.916421 21.7965 0.559529 21.438C0.202638 21.0796 0.00148237 20.5939 0 20.087V8.59913C0.000265108 8.30454 0.0683089 8.014 0.198821 7.75019C0.329332 7.48637 0.518781 7.25641 0.752381 7.07826L10 0L19.2476 7.07826C19.4812 7.25641 19.6707 7.48637 19.8012 7.75019C19.9317 8.014 19.9997 8.30454 20 8.59913Z" fill="black"/>
</svg>
