<svg width="21" height="20" viewBox="0 0 21 20" fill="none" xmlns="http://www.w3.org/2000/svg">
<path d="M20.0518 15.7506C20.2855 15.9851 20.4607 16.2713 20.5631 16.586C20.6656 16.9008 20.6925 17.2353 20.6417 17.5623C20.5909 17.8894 20.4637 18.2 20.2706 18.4688C20.0774 18.7376 19.8236 18.9571 19.5298 19.1096C17.8509 20.007 15.8948 20.2363 14.0538 19.7516C9.16784 18.5216 2.14484 11.4986 0.91484 6.61262C0.430164 4.77167 0.659498 2.81554 1.55684 1.13662C1.70934 0.842823 1.92888 0.589067 2.19769 0.395901C2.4665 0.202736 2.77702 0.0755895 3.10411 0.0247585C3.4312 -0.0260725 3.76567 0.000840396 4.08042 0.103318C4.39518 0.205796 4.68137 0.380958 4.91584 0.61462L7.00084 2.69862C7.30152 2.99628 7.50497 3.37803 7.58441 3.7936C7.66385 4.20917 7.61553 4.63905 7.44584 5.02662C7.26014 5.46146 6.99647 5.85866 6.66784 6.19862C4.28384 8.58262 12.0848 16.3836 14.4678 13.9986C14.8078 13.6688 15.2054 13.4041 15.6408 13.2176C16.0284 13.0476 16.4583 12.9992 16.8739 13.0786C17.2896 13.1581 17.6713 13.3617 17.9688 13.6626L20.0518 15.7506Z" fill="black"/>
</svg>
