<svg width="26" height="21" viewBox="0 0 26 21" fill="none" xmlns="http://www.w3.org/2000/svg">
<path fill-rule="evenodd" clip-rule="evenodd" d="M2.21172 9.01972C8.92122 6.15061 13.3878 4.24416 15.6307 3.31925C22.0143 0.695526 23.3562 0.242509 24.2189 0.223633C24.4106 0.223633 24.8323 0.261385 25.1199 0.487893C25.3499 0.67665 25.4074 0.922035 25.4458 1.11079C25.4841 1.29955 25.5225 1.69594 25.4841 1.99795C25.1391 5.58434 23.6438 14.286 22.877 18.2877C22.5511 19.9865 21.9185 20.5528 21.3051 20.6094C19.9632 20.7227 18.9471 19.7411 17.6628 18.9106C15.6307 17.6082 14.4997 16.7965 12.5252 15.513C10.244 14.0407 11.72 13.229 13.0236 11.9077C13.3687 11.5679 19.2539 6.28274 19.3689 5.81084C19.3881 5.75422 19.3881 5.52771 19.2539 5.41445C19.1197 5.3012 18.928 5.33895 18.7746 5.3767C18.5637 5.41445 15.3432 7.52853 9.07458 11.7001C8.15442 12.323 7.33011 12.625 6.58248 12.6061C5.75817 12.5872 4.18623 12.1531 2.99769 11.7756C1.55994 11.3226 0.409735 11.0772 0.505586 10.2844C0.563096 9.86912 1.1382 9.45386 2.21172 9.01972Z" fill="black"/>
</svg>
