<svg width="27" height="27" viewBox="0 0 27 27" fill="none" xmlns="http://www.w3.org/2000/svg">
<path fill-rule="evenodd" clip-rule="evenodd" d="M2.75817 19.5807L1 26L7.56916 24.2774C9.3792 25.2643 11.4169 25.7846 13.4907 25.7854H13.4961C20.3258 25.7854 25.8853 20.2275 25.8883 13.3974C25.8895 10.0872 24.6021 6.9748 22.2622 4.63322C19.9223 2.29163 16.811 1.00168 13.4963 1C6.66557 1 1.10695 6.55694 1.10409 13.3875C1.10146 15.5614 1.67199 17.6976 2.75817 19.5807ZM3.1962 13.3883C3.19822 7.71132 7.81856 3.09266 13.5 3.09266C14.8531 3.08946 16.1934 3.35468 17.4433 3.87298C18.6932 4.39128 19.8279 5.15235 20.7817 6.11215C21.7408 7.06672 22.5011 8.20206 23.0184 9.45245C23.5358 10.7028 23.7999 12.0434 23.7956 13.3966C23.7935 19.074 19.1731 23.6931 13.4961 23.6931H13.4922C11.6436 23.6921 9.83088 23.1959 8.24989 22.2577L7.87347 22.0347L3.97516 23.0568L5.01584 19.2575L4.77078 18.868C3.7393 17.2266 3.1934 15.3269 3.1962 13.3883Z" fill="black"/>
<path d="M1 26L0.517761 25.8679L0.288941 26.7034L1.12683 26.4836L1 26ZM2.75817 19.5807L3.2404 19.7128L3.29551 19.5116L3.19128 19.3309L2.75817 19.5807ZM7.56916 24.2774L7.80852 23.8384L7.63429 23.7434L7.44233 23.7937L7.56916 24.2774ZM13.4907 25.7854L13.4905 26.2854H13.4907V25.7854ZM25.8883 13.3974L26.3883 13.3977L26.3883 13.3976L25.8883 13.3974ZM13.4963 1L13.4965 0.5H13.4963V1ZM1.10409 13.3875L1.60409 13.3881L1.60409 13.3877L1.10409 13.3875ZM13.5 3.09266L13.5 3.59266L13.5011 3.59266L13.5 3.09266ZM3.1962 13.3883L3.6962 13.3891L3.6962 13.3885L3.1962 13.3883ZM17.4433 3.87298L17.2518 4.33485L17.2518 4.33485L17.4433 3.87298ZM20.7817 6.11215L20.4271 6.46459L20.429 6.46654L20.7817 6.11215ZM23.0184 9.45245L22.5564 9.6436L22.5564 9.64361L23.0184 9.45245ZM23.7956 13.3966L23.2956 13.395L23.2956 13.3964L23.7956 13.3966ZM13.4922 23.6931L13.4919 24.1931H13.4922V23.6931ZM8.24989 22.2577L8.50508 21.8277L8.50473 21.8275L8.24989 22.2577ZM7.87347 22.0347L8.12831 21.6045L7.94864 21.4981L7.74665 21.551L7.87347 22.0347ZM3.97516 23.0568L3.49292 22.9247L3.26408 23.7602L4.10197 23.5405L3.97516 23.0568ZM5.01584 19.2575L5.49808 19.3896L5.55618 19.1775L5.43907 18.9913L5.01584 19.2575ZM4.77078 18.868L4.34744 19.134L4.34756 19.1342L4.77078 18.868ZM1.48224 26.1321L3.2404 19.7128L2.27593 19.4487L0.517761 25.8679L1.48224 26.1321ZM7.44233 23.7937L0.873173 25.5164L1.12683 26.4836L7.69599 24.761L7.44233 23.7937ZM13.4909 25.2854C11.5005 25.2846 9.54503 24.7852 7.80852 23.8384L7.3298 24.7164C9.21338 25.7434 11.3334 26.2846 13.4905 26.2854L13.4909 25.2854ZM13.4961 25.2854H13.4907V26.2854H13.4961V25.2854ZM25.3883 13.3972C25.3854 19.9513 20.0497 25.2854 13.4961 25.2854V26.2854C20.602 26.2854 26.3852 20.5037 26.3883 13.3977L25.3883 13.3972ZM21.9085 4.98664C24.1546 7.23439 25.3895 10.2196 25.3883 13.3973L26.3883 13.3976C26.3896 9.95487 25.0495 6.71521 22.6159 4.27979L21.9085 4.98664ZM13.496 1.5C16.6783 1.50162 19.6624 2.73894 21.9085 4.98664L22.6159 4.27979C20.1822 1.84433 16.9437 0.501752 13.4965 0.5L13.496 1.5ZM1.60409 13.3877C1.60683 6.83318 6.94166 1.5 13.4963 1.5V0.5C6.38948 0.5 0.607064 6.2807 0.604085 13.3873L1.60409 13.3877ZM3.19128 19.3309C2.14903 17.5239 1.60157 15.4741 1.60408 13.3881L0.604086 13.3869C0.601356 15.6487 1.19496 17.8713 2.32505 19.8306L3.19128 19.3309ZM13.5 2.59266C7.54263 2.59266 2.69832 7.43493 2.6962 13.3882L3.6962 13.3885C3.69812 7.98771 8.09449 3.59266 13.5 3.59266V2.59266ZM17.6348 3.41111C16.3238 2.86749 14.918 2.58931 13.4988 2.59266L13.5011 3.59266C14.7881 3.58962 16.063 3.84188 17.2518 4.33485L17.6348 3.41111ZM21.1364 5.7597C20.136 4.753 18.9458 3.95474 17.6348 3.41111L17.2518 4.33485C18.4406 4.82782 19.5199 5.5517 20.4271 6.46459L21.1364 5.7597ZM23.4804 9.26129C22.9378 7.9498 22.1404 6.75898 21.1344 5.75775L20.429 6.46654C21.3413 7.37446 22.0643 8.45432 22.5564 9.6436L23.4804 9.26129ZM24.2956 13.3982C24.3001 11.9789 24.0231 10.5728 23.4804 9.26129L22.5564 9.64361C23.0485 10.8329 23.2997 12.108 23.2956 13.395L24.2956 13.3982ZM13.4961 24.1931C19.4492 24.1931 24.2934 19.3502 24.2956 13.3968L23.2956 13.3964C23.2936 18.7977 18.897 23.1931 13.4961 23.1931V24.1931ZM13.4922 24.1931H13.4961V23.1931H13.4922V24.1931ZM7.99471 22.6876C9.65334 23.672 11.5542 24.1921 13.4919 24.1931L13.4925 23.1931C11.733 23.1922 10.0084 22.7199 8.50508 21.8277L7.99471 22.6876ZM7.61863 22.4648L7.99505 22.6878L8.50473 21.8275L8.12831 21.6045L7.61863 22.4648ZM4.10197 23.5405L8.00028 22.5183L7.74665 21.551L3.84834 22.5732L4.10197 23.5405ZM4.5336 19.1254L3.49292 22.9247L4.45739 23.1889L5.49808 19.3896L4.5336 19.1254ZM4.34756 19.1342L4.59261 19.5238L5.43907 18.9913L5.19401 18.6017L4.34756 19.1342ZM2.6962 13.3876C2.69327 15.4205 3.26574 17.4128 4.34744 19.134L5.19413 18.6019C4.21286 17.0405 3.69354 15.2332 3.6962 13.3891L2.6962 13.3876Z" fill="black"/>
<path fill-rule="evenodd" clip-rule="evenodd" d="M10.3989 8.20872C10.1668 7.69318 9.92262 7.68273 9.70215 7.67381L9.10863 7.66656C8.90214 7.66656 8.56664 7.74404 8.28302 8.05394C7.9994 8.36384 7.19922 9.11281 7.19922 10.6362C7.19922 12.1596 8.30879 13.6316 8.4634 13.8384C8.61801 14.0452 10.6054 17.271 13.7527 18.5121C16.3682 19.5436 16.9004 19.3384 17.4683 19.2869C18.0362 19.2354 19.3002 18.5379 19.5581 17.8149C19.8159 17.0918 19.8161 16.4724 19.7388 16.3429C19.6615 16.2133 19.455 16.1364 19.1451 15.9814C18.8352 15.8265 17.3132 15.0775 17.0294 14.9741C16.7456 14.8707 16.5393 14.8193 16.3326 15.1292C16.126 15.4391 15.5333 16.1362 15.3526 16.3429C15.1718 16.5495 14.9915 16.5755 14.6816 16.4207C14.3717 16.2659 13.3746 15.9388 12.1916 14.884C11.2712 14.0633 10.6499 13.0497 10.469 12.74C10.2881 12.4302 10.4498 12.2625 10.6051 12.1082C10.744 11.9694 10.9146 11.7466 11.0697 11.5659C11.2249 11.3852 11.2759 11.256 11.379 11.0497C11.482 10.8434 11.4307 10.6621 11.3532 10.5074C11.2757 10.3526 10.6741 8.8211 10.3989 8.20872Z" fill="black" stroke="black"/>
</svg>
