<svg width="40" height="22" viewBox="0 0 40 22" fill="none" xmlns="http://www.w3.org/2000/svg">
<path d="M31.7156 6.62376C30.1476 6.62376 28.7447 7.09916 27.5618 7.88215V0.583496H24.2332V14.0343C24.2332 18.1171 27.5893 21.4168 31.6881 21.4168C35.7869 21.4168 39.198 18.145 39.198 14.0063C39.198 9.86761 35.8969 6.62376 31.7156 6.62376ZM15.2378 14.9851L12.1844 7.15508H9.84611L6.82014 14.9851L3.76666 7.15508H0.135498L5.47221 20.9694H7.81045L11.029 12.7479L14.2475 20.9694H16.5858L21.895 7.15508H18.2913L15.2378 14.9851ZM31.7156 18.145C29.4599 18.145 27.5618 16.3553 27.5618 14.0343C27.5618 11.7132 29.3498 9.9515 31.7156 9.9515C34.0814 9.9515 35.8969 11.7692 35.8969 14.0343C35.8969 16.2994 33.9988 18.145 31.7156 18.145Z" fill="white"/>
</svg>
